<svg t="1745680546539" class="icon" viewBox="0 0 1024 1024" version="1.1" xmlns="http://www.w3.org/2000/svg" p-id="7214" width="200" height="200"><path d="M515.89 847.57c-80.1 0-155.41-31.19-212.06-87.84-56.64-56.64-87.84-131.95-87.84-212.06V431.39h45v116.28c0 68.08 26.51 132.09 74.66 180.24 48.14 48.14 112.15 74.66 180.24 74.66s132.09-26.51 180.24-74.66c48.14-48.14 74.66-112.15 74.66-180.24V388.99H216v-45h599.78v203.68c0 80.1-31.19 155.41-87.84 212.06-56.64 56.64-131.95 87.84-212.06 87.84z" p-id="7215" fill="#409eff"></path><path d="M342 179.5h45v119.4h-45zM493 179.5h45v119.4h-45zM644 179.5h45v119.4h-45z" fill="#FFCA22" p-id="7216"></path></svg>