<svg t="1744823872236" class="icon" viewBox="0 0 1024 1024" version="1.1" xmlns="http://www.w3.org/2000/svg" p-id="29774" width="200" height="200"><path d="M480 512a32 29.866667 0 1 0 64 0 32 29.866667 0 1 0-64 0Z" fill="#3D7EFF" p-id="29775"></path><path d="M512 407.466667c-106.666667 0-192 81.066667-209.066667 104.533333 17.066667 23.466667 102.4 104.533333 209.066667 104.533333s192-81.066667 209.066667-104.533333c-17.066667-23.466667-102.4-104.533333-209.066667-104.533333z m0 177.066666c-42.666667 0-76.8-32-76.8-72.533333s34.133333-72.533333 76.8-72.533333 76.8 32 76.8 72.533333-34.133333 72.533333-76.8 72.533333z" fill="#3D7EFF" p-id="29776"></path><path d="M512 0C228.266667 0 0 228.266667 0 512s228.266667 512 512 512 512-228.266667 512-512S795.733333 0 512 0z m0 661.333333c-134.4 0-256-115.2-256-149.333333 0-34.133333 121.6-149.333333 256-149.333333s256 115.2 256 149.333333c0 34.133333-121.6 149.333333-256 149.333333z" fill="#3D7EFF" p-id="29777"></path></svg>