<svg viewBox="0 0 1024 1024" version="1.1"
     xmlns="http://www.w3.org/2000/svg" p-id="7515" width="200" height="200">
    <path
            d="M896 960l-86.4-97.92c-3.2-3.2-7.04-4.48-8.96-4.48-1.92 0-5.76 0-8.96 3.2l-0.64 0.64L704 953.6l-86.4-92.16c-5.12-5.12-12.8-5.12-17.92-0.64l-0.64 0.64L511.36 953.6l-86.4-92.16c-3.2-3.2-7.04-3.84-8.96-3.84-1.92 0-5.76 0-8.96 3.2l-0.64 0.64L320 953.6l-86.4-92.16c-3.2-3.2-7.04-3.84-8.96-3.84-1.92 0-5.76 0-8.96 3.2-0.64 0-0.64 0.64-0.64 0.64L128 960V454.4c0-211.84 172.16-384 384-384s384 172.16 384 384v505.6zM224 793.6h2.56c20.48 0.64 39.68 8.96 53.76 24.32l39.68 42.24 39.68-42.88 3.84-3.84c15.36-14.08 34.56-21.12 55.04-20.48 20.48 0.64 39.68 9.6 53.76 24.32l39.68 42.24 40.32-42.88 3.2-3.2c30.72-28.8 79.36-27.52 108.8 3.84l39.68 42.88 39.68-42.24c1.28-1.92 3.2-3.2 5.12-5.12 15.36-13.44 35.2-20.48 55.68-19.2 9.6 0.64 19.2 3.2 27.52 7.04V454.4c0-176.64-143.36-320-320-320S192 277.76 192 454.4v346.24c10.24-4.48 21.12-7.04 32-7.04z"
            fill="#2189FF" p-id="7516" />
    <path
            d="M627.2 441.6c17.92 0 32 14.08 32 32v64c0 17.92-14.08 32-32 32s-32-14.08-32-32V473.6c0-17.92 14.08-32 32-32zM396.8 441.6c17.92 0 32 14.08 32 32v64c0 17.92-14.08 32-32 32s-32-14.08-32-32V473.6c0-17.92 14.08-32 32-32z"
            fill="#89BEFA" p-id="7517" />
</svg>