<svg t="1746242447919" class="icon" viewBox="0 0 1052 1024" version="1.1" xmlns="http://www.w3.org/2000/svg" p-id="3816" width="200" height="200"><path d="M612.341059 509.475068L716.803086 685.11211l306.947507-181.065644-135.518685-157.836274 0.533041-0.420822-421.691616-87.573041-339.939946 133.400548H126.951031L20.076292 574.983014l448.638246 118.054575 127.62126-187.995178 15.991233 4.432657z" fill="#ECECEC" p-id="3817"></path><path d="M181.237059 384.280548l444.079342 108.207342 28.980603-17.506191c-199.329315-66.588055-242.912438-150.58411-231.662466-194.588055l-241.411507 103.886904z" fill="#DEDEDE" p-id="3818"></path><path d="M504.189826 0h53.318137v155.886466h-53.30411V0z m246.601644 49.236164l-78.637589 134.915507 44.466849 23.678247 78.511342-135.013699-44.340602-23.566027zM241.1621 80.755726l91.500712 126.471014 42.503014-29.499617-91.290302-126.485041-42.713424 29.513644z m804.667616 398.686685l-131.857534-153.740274a23.986849 23.986849 0 0 0-16.650521-12.624658l-421.579397-86.058082a23.958795 23.958795 0 0 0-13.746849 1.192329l-340.02411 132.629041c-1.963836 0.869699-3.787397 1.963836-5.414575 3.254356h-1.192329c-1.72537 1.823562-3.352548 3.787397-4.979726 5.723178L3.313552 552.511123a23.986849 23.986849 0 0 0 8.556712 32.866192c1.935781 1.08011 3.997808 1.949808 6.158028 2.482849l89.003835 23.243398v252.857863c0 10.702904 7.153973 20.10126 17.422028 23.018959l474.911561 135.883397c6.480658 2.062027 13.410192 1.304548 19.357808-2.160219l299.148274-167.122411c7.687014-4.208219 12.442301-12.330082 12.34411-21.18137l-3.142137-251.132493 113.130959-66.489863a23.888658 23.888658 0 0 0 8.542685-32.739946c-0.757479-1.304548-1.627178-2.384658-2.496877-3.576986l-0.420822 0.981918zM473.147196 275.343781L826.357059 348.300274l-38.603398 22.261479-176.296328 103.353863-328.142905-79.030356-73.321205-17.73063 263.139945-101.838904z m-412.40548 275.217534l82.088329-139.656767 127.957918 30.691945 289.525479 69.940603-98.416219 144.32789L60.741716 550.561315z m94.85326 296.426959V624.920548l311.267946 81.625425c9.847233 2.595068 20.339726-1.40274 26.076931-9.833206l84.360767-123.777753 3.885589 395.656767-425.591233-121.617534z m473.508822 113.509699l-3.899616-397.929206 74.737973 125.068274a24.225315 24.225315 0 0 0 32.992438 8.430466l146.011178-85.707397 2.482849 209.288767-252.324822 140.835068z m100.043398-317.930959l-79.92811-133.512767 162.886137-96.101699 74.737973-44.214356 103.816767 120.312986L729.147196 642.567014z" fill="#CCCCCC" p-id="3819"></path></svg>