<svg t="1744716891257" class="icon" viewBox="0 0 1024 1024" version="1.1" xmlns="http://www.w3.org/2000/svg" p-id="3432" width="200" height="200"><path d="M715.82 735.83m-173.98 0a173.98 173.98 0 1 0 347.96 0 173.98 173.98 0 1 0-347.96 0Z" fill="#E1DDFF" p-id="3433"></path><path d="M451.08 489.08H216V254h235.08v235.08z m-199.08-36h163.08V290H252v163.08zM758.83 489.08H523.75V254h235.08v235.08z m-199.08-36h163.08V290H559.75v163.08zM451.08 793.18H216V558.1h235.08v235.08z m-199.08-36h163.08V594.1H252v163.08zM758.83 793.18H523.75V558.1h235.08v235.08z m-199.08-36h163.08V594.1H559.75v163.08z" fill="#444444" p-id="3434"></path></svg>