<svg class="icon" viewBox="0 0 1424 1024" version="1.1" xmlns="http://www.w3.org/2000/svg" width="200" height="200">
    <path d="M0 814.169043c0 113.842087 318.348243 206.135652 711.083409 206.135653 392.717357 0 711.074504-92.275757 711.074504-206.126748 0-113.815374-318.374957-206.108939-711.074504-206.108939C318.374957 608.0512 0 700.35367 0 814.169043z"
          fill="rgba(0,0,0,0.05)" />
    <path d="M243.988035 761.339548c0 74.787617 209.118609 135.381704 467.086469 135.381704 257.976765 0 467.095374-60.594087 467.095374-135.390609 0-74.752-209.118609-135.390609-467.086469-135.390608-257.976765 0-467.095374 60.611896-467.095374 135.390608v0.008905z"
          fill="rgba(0,0,0,0.1)" />
    <path d="M326.673809 237.042643l343.182469-72.125217v612.138296L350.386087 688.430748z" fill="#D6D0F5" />
    <path d="M669.874087 291.661913V164.908522l407.062261 42.260035-338.026852 96.8704z" fill="#C8C1EB" />
    <path d="M723.460452 298.892243l-2.056904 521.465322-401.924452-104.10073V391.631026l403.990261-92.738783z m-271.048348 174.169044c-8.245426-1.032904-16.490852 4.113809-17.532661 12.359235-1.032904 8.236522 4.113809 16.481948 12.359235 17.514852l131.909009 23.685565c8.227617 1.032904 16.490852-4.104904 17.523756-12.341426 1.024-8.25433-4.122713-16.499757-12.35033-17.514852l-131.909009-23.712278z"
          fill="#5c92c1" />
    <path d="M721.385739 820.339757l363.796035-125.729392V376.181983l-363.796035-77.280835V820.357565z"
          fill="#5c92c1" />
    <path d="M323.584 237.042643L214.354365 391.631026l397.783931 79.355548 109.229634-172.112139z"
          fill="#5c92c1" />
    <path d="M834.746991 459.642435l347.296279-114.394157-105.080209-139.12153-354.517704 92.738782 112.301634 160.768z m10.302331 95.864208l133.983721-36.080417v92.738783L845.049322 655.449043V555.506643z"
          fill="#F4F1FF" />
    <path d="M863.614887 584.35673v-6.197426l49.454748-15.449043v6.188522l-49.454748 15.457947z m0 20.604661v-6.188521l41.209322-12.359235v6.179617l-41.209322 12.377044z m0 20.604661v-6.179617l69.035409-21.655374v6.188522l-69.035409 21.646469z"
          fill="#5c92c1" />
    <path d="M608.024487 15.484661a15.457948 15.457948 0 1 0 30.9248-0.026713 15.457948 15.457948 0 0 0-30.9248 0.026713z m72.15193 0a15.457948 15.457948 0 1 0 30.9248-0.026713 15.457948 15.457948 0 0 0-30.9248 0.026713z m72.134122 0a15.466852 15.466852 0 1 0 30.942609-0.026713 15.466852 15.466852 0 0 0-30.942609 0.026713z"
          fill="#5c92c1"/>
</svg>