<svg t="1742217351980" class="icon" viewBox="0 0 1024 1024" version="1.1" xmlns="http://www.w3.org/2000/svg" p-id="5914" width="200" height="200"><path d="M924.8 625.706667l-65.493333-56a359.616 359.616 0 0 0 0-115.626667l65.493333-55.978667c10.090667-8.597333 13.802667-22.613333 9.301333-35.2l-0.896-2.602666a443.733333 443.733333 0 0 0-79.701333-137.898667l-1.813333-2.090667a32.128 32.128 0 0 0-35.093334-9.514666l-81.28 28.906666a352.384 352.384 0 0 0-99.712-57.6l-15.701333-84.992a32.042667 32.042667 0 0 0-25.813333-25.706666l-2.688-0.512c-52.096-9.386667-106.901333-9.386667-158.997334 0l-2.709333 0.512a32.042667 32.042667 0 0 0-25.813333 25.706666l-15.786667 85.397334a351.850667 351.850667 0 0 0-98.986667 57.386666l-81.92-29.098666a32 32 0 0 0-35.093333 9.514666l-1.792 2.090667a446.016 446.016 0 0 0-79.701333 137.898667l-0.896 2.602666a32.106667 32.106667 0 0 0 9.301333 35.2l66.282667 56.597334a351.850667 351.850667 0 0 0-4.586667 57.109333c0 19.2 1.493333 38.4 4.586667 57.088L99.008 625.493333a32.021333 32.021333 0 0 0-9.301333 35.2l0.896 2.602667a444.885333 444.885333 0 0 0 79.701333 137.898667l1.792 2.112a32.128 32.128 0 0 0 35.114667 9.493333l81.898666-29.098667a349.461333 349.461333 0 0 0 98.986667 57.386667l15.786667 85.418667a32.042667 32.042667 0 0 0 25.813333 25.685333l2.709333 0.512a449.386667 449.386667 0 0 0 158.997334 0l2.688-0.512a32.042667 32.042667 0 0 0 25.813333-25.685333l15.701333-85.013334a350.016 350.016 0 0 0 99.690667-57.6l81.301333 28.906667a32 32 0 0 0 35.093334-9.493333l1.813333-2.112a446.016 446.016 0 0 0 79.701333-137.898667l0.896-2.602667a31.893333 31.893333 0 0 0-9.301333-34.986666z m-136.490667-159.786667a283.008 283.008 0 0 1 0 92.16l-6.613333 40.106667 74.709333 63.914666a370.026667 370.026667 0 0 1-42.602666 73.6l-92.8-32.896-31.402667 25.813334a279.466667 279.466667 0 0 1-79.296 45.781333l-38.101333 14.293333-17.92 97.002667c-28.074667 3.2-56.789333 3.2-84.992 0l-17.898667-97.194667-37.781333-14.506666a279.765333 279.765333 0 0 1-78.72-45.696l-31.381334-25.898667-93.418666 33.194667a377.877333 377.877333 0 0 1-42.581334-73.6l75.498667-64.490667-6.506667-40A287.914667 287.914667 0 0 1 232.789333 512c0-15.296 1.216-30.592 3.712-45.504l6.506667-40-75.52-64.490667c11.306667-26.112 25.6-50.709333 42.602667-73.6l93.418666 33.194667 31.381334-25.898667a279.765333 279.765333 0 0 1 78.72-45.696l37.888-14.293333 17.92-97.216c28.074667-3.2 56.789333-3.2 84.970666 0l17.92 97.002667 38.08 14.293333a280.832 280.832 0 0 1 79.317334 45.802667l31.402666 25.813333 92.8-32.917333a377.877333 377.877333 0 0 1 42.581334 73.6l-74.688 63.914666 6.506666 39.893334zM512 325.973333a176 176 0 1 0 0 352 176 176 0 0 0 0-352z m79.189333 255.210667A111.594667 111.594667 0 0 1 512 613.973333a111.594667 111.594667 0 0 1-79.189333-32.789333 111.594667 111.594667 0 0 1-32.810667-79.210667c0-29.888 11.690667-57.984 32.810667-79.189333A111.189333 111.189333 0 0 1 512 389.973333c29.909333 0 58.005333 11.605333 79.189333 32.810667a111.594667 111.594667 0 0 1 32.810667 79.189333 111.594667 111.594667 0 0 1-32.810667 79.210667z" fill="#409eff" p-id="5915"></path></svg>