<svg t="1744716814256" class="icon" viewBox="0 0 1024 1024" version="1.1" xmlns="http://www.w3.org/2000/svg" p-id="3121" width="200" height="200"><path d="M550.15 617.07m-89.05 0a89.05 89.05 0 1 0 178.1 0 89.05 89.05 0 1 0-178.1 0Z" fill="#5c92c1" p-id="3122"></path><path d="M487.83 689.43c-59.03 0-107.05-48.02-107.05-107.05s48.02-107.05 107.05-107.05 107.05 48.02 107.05 107.05-48.02 107.05-107.05 107.05z m0-178.11c-39.18 0-71.05 31.88-71.05 71.05s31.87 71.05 71.05 71.05 71.05-31.88 71.05-71.05-31.87-71.05-71.05-71.05z" fill="#444444" p-id="3123"></path><path d="M487.83 775c-59.98 0-118.8-17.66-170.12-51.08-49.55-32.27-90.93-78.33-119.66-133.19l-4.37-8.35 4.37-8.35c28.73-54.86 70.1-100.92 119.66-133.19 51.32-33.42 110.14-51.08 170.12-51.08s118.8 17.66 170.12 51.08c49.55 32.27 90.93 78.33 119.66 133.19l4.37 8.35-4.37 8.35c-28.73 54.86-70.1 100.92-119.66 133.19C606.64 757.34 547.81 775 487.83 775zM234.47 582.38c25.6 45.73 61.02 84.11 102.89 111.37 45.46 29.6 97.49 45.25 150.47 45.25s105.02-15.65 150.47-45.25c41.87-27.27 77.29-65.65 102.89-111.37-25.6-45.73-61.02-84.11-102.89-111.37-45.46-29.6-97.49-45.25-150.47-45.25s-105.02 15.65-150.47 45.25c-41.87 27.27-77.29 65.65-102.89 111.37zM469.83 232.38h36v107.59h-36zM264.347 285.903l33.277-13.736 41.051 99.45-33.276 13.736zM636.395 371.624l41.052-99.45 33.276 13.735-41.051 99.45z" fill="#444444" p-id="3124"></path></svg>