<svg t="1742217303615" class="icon" viewBox="0 0 1024 1024" version="1.1" xmlns="http://www.w3.org/2000/svg" p-id="5761" width="200" height="200"><path d="M512 41.770667C252.330667 41.770667 41.770667 252.330667 41.770667 512c0 259.669333 210.56 470.229333 470.229333 470.229333 259.669333 0 470.229333-210.56 470.229333-470.229333 0-259.669333-210.56-470.229333-470.229333-470.229333z m0 860.672C296.405333 902.442667 121.557333 727.594667 121.557333 512a388.693333 388.693333 0 0 1 87.637334-246.442667l549.248 549.248A388.693333 388.693333 0 0 1 512 902.442667z m302.805333-144L265.557333 209.194667A388.693333 388.693333 0 0 1 512 121.557333c215.594667 0 390.442667 174.848 390.442667 390.442667a388.693333 388.693333 0 0 1-87.637334 246.442667z" fill="#409eff" p-id="5762"></path></svg>