<svg t="1744718551478" class="icon" viewBox="0 0 1024 1024" version="1.1" xmlns="http://www.w3.org/2000/svg" p-id="3894" width="200" height="200"><path d="M609.82 556.37m-114.62 0a114.62 114.62 0 1 0 229.24 0 114.62 114.62 0 1 0-229.24 0Z" fill="#F8F800F9" p-id="3895"></path><path d="M537.24 618.63c-59.13 0-107.24-48.11-107.24-107.24s48.11-107.24 107.24-107.24 107.24 48.11 107.24 107.24-48.11 107.24-107.24 107.24z m0-178.48c-39.28 0-71.24 31.96-71.24 71.24s31.96 71.24 71.24 71.24 71.24-31.96 71.24-71.24-31.96-71.24-71.24-71.24z" fill="#444444" p-id="3896"></path><path d="M623.76 816.89H450.72v-18c0-28.73-14.85-54.46-39.74-68.82-24.88-14.36-54.59-14.36-79.47 0l-15.59 9-86.52-149.85 15.59-9c24.88-14.36 39.73-40.09 39.73-68.82s-14.85-54.46-39.73-68.82l-15.59-9 86.52-149.86 15.59 9c24.88 14.37 54.59 14.37 79.47 0 24.88-14.37 39.73-40.09 39.73-68.82v-18h173.04v18c0 28.73 14.85 54.46 39.73 68.82 24.88 14.37 54.59 14.36 79.47 0l15.59-9 86.52 149.85-15.59 9c-24.88 14.36-39.73 40.09-39.73 68.82 0 28.73 14.85 54.46 39.73 68.82l15.59 9-86.52 149.86-15.59-9c-24.88-14.36-54.59-14.37-79.47 0-24.88 14.37-39.73 40.09-39.73 68.82v18z m-138.4-36h103.76c5.26-34.33 25.51-64.18 56.37-82 30.86-17.82 66.84-20.42 99.2-7.82l51.88-89.86c-27.1-21.72-42.83-54.18-42.83-89.82s15.73-68.1 42.83-89.82l-51.88-89.86c-32.36 12.61-68.33 10-99.2-7.82-30.86-17.82-51.11-47.67-56.37-82H485.36c-5.26 34.33-25.51 64.18-56.37 82-18.07 10.43-37.91 15.65-57.73 15.65-14.03 0-28.06-2.61-41.46-7.83l-51.88 89.86c27.1 21.72 42.83 54.18 42.83 89.82 0 35.64-15.73 68.1-42.83 89.82l51.88 89.86c32.36-12.61 68.33-10 99.2 7.82 30.87 17.82 51.11 47.67 56.37 82z" fill="#444444" p-id="3897"></path></svg>