<svg t="1744824286739" class="icon" viewBox="0 0 1024 1024" version="1.1" xmlns="http://www.w3.org/2000/svg"
     p-id="25541" width="200" height="200">
    <path d="M512 513.36533333m-509.26933333 0a509.26933333 509.26933333 0 1 0 1018.53866666 0 509.26933333 509.26933333 0 1 0-1018.53866666 0Z"
          fill="#409EFFFF" p-id="25542"></path>
    <path d="M177.37955555 608.59733333h59.16444445V420.40888889h-48.58311111v-26.85155556c25.37244445-4.77866667 43.34933333-11.03644445 58.82311111-20.59377778H278.75555555V608.71111111h52.90666667v34.92977778H177.37955555v-35.04355556zM408.34844445 618.95111111c79.75822222-70.656 120.94577778-123.22133333 120.94577777-167.70844444 0-29.46844445-15.81511111-49.60711111-45.96622222-49.60711112-21.27644445 0-39.02577778 13.65333333-53.36177778 30.15111112l-23.89333333-23.552c23.21066667-25.03111111 47.104-40.50488889 82.37511111-40.50488889 49.60711111 0 81.69244445 32.31288889 81.69244445 81.23733333 0 52.224-41.52888889 106.26844445-98.8728889 161.10933334 13.99466667-1.47911111 30.83377778-2.61688889 44.14577778-2.6168889h67.69777778v36.06755556H408.34844445V618.95111111zM648.87466667 611.21422222l20.59377778-27.19288889c15.81511111 16.15644445 36.06755555 29.80977778 63.9431111 29.80977778 30.49244445 0 51.54133333-16.95288889 51.54133334-44.82844444 0-30.15111111-19.11466667-49.60711111-80.21333334-49.60711112V488.10666667c53.36177778 0 70.99733333-20.25244445 70.99733334-47.44533334 0-23.89333333-15.81511111-39.02577778-41.52888889-39.36711111-20.93511111 0.34133333-38.57066667 10.69511111-54.04444445 25.71377778L658.09066667 400.49777778c21.27644445-19.11466667 46.30755555-32.768 77.59644444-32.768 48.58311111 0 82.71644445 25.03111111 82.71644444 69.85955555 0 31.28888889-17.97688889 52.90666667-46.64888888 63.60177778v1.82044444c31.28888889 7.73688889 55.86488889 31.28888889 55.86488888 67.69777778 0 48.92444445-40.84622222 77.59644445-90.45333333 77.59644445-42.66666667 0.11377778-70.31466667-16.83911111-88.29155555-37.09155556z"
          fill="#FFFFFF" p-id="25543"></path>
</svg>